<?xml version="1.0" standalone="no"?>
<!DOCTYPE svg PUBLIC "-//W3C//DTD SVG 20010904//EN"
 "http://www.w3.org/TR/2001/REC-SVG-20010904/DTD/svg10.dtd">
<svg version="1.0" xmlns="http://www.w3.org/2000/svg"
 width="744.000000pt" height="744.000000pt" viewBox="0 0 744.000000 744.000000"
 preserveAspectRatio="xMidYMid meet">
<metadata>
Created by potrace 1.14, written by Peter Selinger 2001-2017
</metadata>
<g transform="translate(0.000000,744.000000) scale(0.100000,-0.100000)"
fill="#000000" stroke="none">
<path d="M1827 7404 c-2 -2 -50 -6 -108 -8 -57 -3 -120 -10 -139 -15 -19 -6
-56 -16 -82 -22 -27 -7 -48 -16 -48 -20 0 -4 -14 -10 -30 -14 -17 -4 -36 -12
-43 -18 -7 -7 -28 -21 -46 -31 -115 -64 -247 -224 -304 -366 -59 -150 -55 65
-56 -3180 0 -3270 -5 -3017 60 -3178 92 -232 303 -410 546 -463 32 -7 65 -14
73 -16 22 -5 4127 -3 4180 2 77 7 279 77 300 104 3 3 25 19 50 35 56 37 135
116 180 181 19 28 38 52 43 53 4 2 5 7 2 12 -3 4 2 13 10 20 8 7 15 21 15 31
0 10 4 20 9 23 8 6 39 91 47 131 2 11 7 31 11 45 4 14 8 1364 9 3000 2 3142 3
3032 -42 3165 -43 130 -131 255 -245 350 -33 28 -123 90 -127 87 -1 -1 -16 5
-34 14 -35 18 -128 50 -173 59 -30 6 -187 18 -215 16 -57 -3 -122 -1 -129 4
-5 3 -11 1 -13 -4 -1 -5 -23 -6 -48 -2 -25 4 -58 4 -75 1 -16 -3 -49 -3 -72 1
-23 3 -44 2 -45 -2 -2 -4 -23 -4 -48 0 -25 4 -58 4 -75 1 -16 -3 -49 -3 -72 1
-23 3 -44 2 -45 -2 -2 -4 -23 -4 -48 0 -25 4 -58 4 -75 1 -16 -3 -49 -3 -72 1
-23 3 -44 2 -45 -2 -2 -4 -23 -4 -48 0 -25 4 -58 4 -75 1 -16 -3 -49 -3 -72 1
-23 3 -44 2 -45 -2 -2 -4 -23 -4 -48 0 -25 4 -58 4 -75 1 -16 -3 -49 -3 -72 1
-23 3 -44 2 -45 -2 -2 -4 -23 -4 -48 0 -25 4 -58 4 -75 1 -16 -3 -49 -3 -72 1
-23 3 -44 2 -45 -2 -2 -4 -23 -4 -48 0 -25 4 -58 4 -75 1 -16 -3 -49 -3 -72 1
-23 3 -44 2 -45 -2 -2 -4 -23 -4 -48 0 -25 4 -58 4 -75 1 -16 -3 -49 -3 -72 1
-23 3 -44 2 -45 -2 -2 -4 -23 -4 -48 0 -25 4 -58 4 -75 1 -16 -3 -49 -3 -72 1
-23 3 -44 2 -45 -2 -2 -4 -23 -4 -48 0 -25 4 -58 4 -75 1 -16 -3 -49 -3 -72 1
-23 3 -44 2 -45 -2 -2 -4 -23 -4 -48 0 -25 4 -58 4 -75 1 -16 -3 -49 -3 -72 1
-23 3 -44 2 -45 -2 -2 -4 -23 -4 -48 0 -25 4 -58 4 -75 1 -16 -3 -49 -3 -72 1
-23 3 -44 2 -45 -2 -2 -4 -23 -4 -48 0 -25 4 -58 4 -75 1 -16 -3 -49 -3 -72 1
-23 3 -44 2 -45 -2 -2 -4 -23 -4 -48 0 -25 4 -58 4 -75 1 -16 -3 -49 -3 -72 1
-23 3 -44 2 -45 -2 -2 -4 -23 -4 -48 0 -25 4 -58 4 -75 1 -16 -3 -49 -3 -72 1
-23 3 -44 2 -45 -2 -2 -4 -24 -4 -50 0 -27 5 -49 6 -51 5z"/>
</g>
</svg>
